<?xml version="1.0" encoding="UTF-8"?>
<!DOCTYPE svg PUBLIC "-//W3C//DTD SVG 1.1//EN" "http://www.w3.org/Graphics/SVG/1.1/DTD/svg11.dtd">
<!-- Creator: CorelDRAW -->
<svg xmlns="http://www.w3.org/2000/svg" xml:space="preserve" width="117.079mm" height="20.8535mm" version="1.1" style="shape-rendering:geometricPrecision; text-rendering:geometricPrecision; image-rendering:optimizeQuality; fill-rule:evenodd; clip-rule:evenodd"
viewBox="0 0 5922.36 1054.86"
 xmlns:xlink="http://www.w3.org/1999/xlink"
 xmlns:xodm="http://www.corel.com/coreldraw/odm/2003">
 <defs>
  <style type="text/css">
   <![CDATA[
    .fil0 {fill:#333333;fill-rule:nonzero}
   ]]>
  </style>
 </defs>
 <g id="Layer_x0020_1">
  <metadata id="CorelCorpID_0Corel-Layer"/>
  <g id="_2444467816144">
   <path class="fil0" d="M4077.46 494.45l0 1.2 0 1.2 0 1.2 0 1.2 0 27.64 0 1.14 0 1.17 0 1.14 0 1.14c-0.13,22.99 -1.3,45.27 -3.74,66.58 -2.34,22.96 -6.33,44.01 -11.24,63.19 -6.33,24.6 -15,46.83 -25.77,66.27 -10.76,19.44 -23.88,35.36 -39.32,48.25 -12.41,10.51 -26.69,18.49 -42.61,24.09 -9.28,3.14 -19.16,5.35 -29.57,6.71l0 -585.83c9.59,1.26 18.65,3.39 27.23,6.24 15.23,4.91 29.03,11.93 41.44,21.08 15.45,12.41 29.04,28.31 40.49,47.75 11.49,19.43 20.61,41.44 27.39,66.26 5.42,19.66 9.63,40.97 11.97,64.15 2.41,21.53 3.58,44.26 3.74,68.22zm-344.24 313.15c-14.82,-1.04 -28.43,-3.86 -40.81,-8.42 -15.67,-6.08 -29.73,-14.5 -42.14,-25.51 -13.11,-12.19 -24.82,-28.34 -34.63,-48.22 -9.84,-19.91 -17.1,-41.92 -22.26,-66.27 -4.43,-19.19 -7.72,-40.05 -9.59,-62.53 -1.74,-20.83 -2.69,-42.74 -2.82,-65.25l0 -1.11 0 -1.14 0 -1.11 0 -1.14 0 -27.64 0 -1.2 0 -1.2 0 -1.2 0 -1.2c0.13,-23.97 1.29,-46.79 3.29,-68.7 1.87,-23.18 5.38,-44.71 9.81,-64.36 5.86,-25.77 14.28,-48 25.04,-67.22 10.79,-19.19 23.9,-35.33 39.35,-47.99 11.46,-8.64 24.35,-15.45 38.85,-19.88 10.92,-3.58 22.92,-5.82 35.9,-6.65l0 587.95zm-346.71 -345.88l-1.04 0 0 34.86 0 2.06 0 2.05 0 26.22 0 1.93 0 1.9 0 33.68 0.98 0c1.49,27.48 4.56,54.07 9.08,79.79 6.56,36.98 16.4,71.17 29.03,102.77 14.28,34.41 31.85,65.09 52.94,92.26 21.05,27.13 44.7,50.31 71.39,69.52 26.91,18.49 56.89,32.55 89.66,42.62 29.28,8.93 60.79,13.96 94.66,15l0 46.07 191.98 0 0 -46.48c27.99,-1.52 54.39,-5.79 79.21,-12.98 31.82,-8.9 61.1,-21.31 87.54,-37.2 29.29,-18.27 55.28,-41.22 78.2,-68.61 22.95,-27.39 42.14,-57.59 57.59,-90.61 14.53,-33.02 25.77,-68.61 33.72,-107.23 5.44,-27.19 8.9,-55.56 10.48,-84.91l1.01 0 0 -33.49 0 -2.03 0 -1.99 0 -26.22 0 -2.12 0 -2.12 0 -34.73 -1.08 0c-1.74,-31.06 -5.57,-60.79 -11.59,-89.35 -8.42,-40.27 -20.58,-77.25 -36.75,-111.19 -14.5,-29.73 -32.07,-56.89 -52.43,-81.71 -20.36,-24.6 -44,-45.65 -70.95,-62.97 -26.91,-18.27 -57.33,-32.33 -90.83,-42.14 -26.63,-7.75 -54.55,-12.44 -84.12,-14.09l0 -46.57 -191.98 0 0 46.07c-33.24,0.92 -64.27,5.57 -93.24,14.12 -32.32,9.6 -61.58,23.4 -87.79,41.19 -26.47,18.27 -49.9,40.27 -70.26,65.79 -20.36,25.77 -37.71,54.33 -51.73,85.7 -14.75,33.47 -25.77,69.75 -33.24,109.1 -5.42,27.54 -8.84,56.2 -10.45,86.05z"/>
   <polygon class="fil0" points="5922.36,1012.43 5922.36,13.69 5731.8,13.69 5731.8,423.15 5449.21,423.15 5449.21,13.69 5257.7,13.69 5257.7,1012.43 5449.21,1012.43 5449.21,579.55 5731.8,579.55 5731.8,1012.43 "/>
   <g>
    <path class="fil0" d="M4930.84 439.66l0 146.81c0,24.57 -1.17,48.47 -3.73,71.17 -2.34,22.96 -6.33,44.01 -11.24,63.19 -6.33,24.6 -15.01,46.83 -25.77,66.26 -10.76,19.44 -23.87,35.37 -39.32,48.25 -12.41,10.51 -26.69,18.49 -42.62,24.09 -15.92,5.38 -33.71,8.2 -52.9,8.2 -19.91,0 -37.93,-3.04 -53.85,-8.9 -15.68,-6.08 -29.73,-14.5 -42.14,-25.51 -13.11,-12.19 -24.82,-28.34 -34.63,-48.22 -9.85,-19.91 -17.1,-41.91 -22.26,-66.26 -4.43,-19.19 -7.72,-40.05 -9.59,-62.53 -1.87,-22.22 -2.82,-45.65 -2.82,-69.75l0 -146.81c0,-25.74 1.17,-50.08 3.29,-73.51 1.87,-23.17 5.38,-44.7 9.82,-64.36 5.86,-25.77 14.27,-47.99 25.04,-67.22 10.8,-19.18 23.91,-35.33 39.35,-47.99 11.46,-8.64 24.35,-15.45 38.85,-19.88 14.27,-4.69 30.46,-7.03 48.25,-7.03 18.96,0 35.81,2.56 51.26,7.72 15.23,4.91 29.03,11.94 41.44,21.09 15.45,12.41 29.03,28.3 40.49,47.74 11.49,19.44 20.61,41.44 27.39,66.27 5.41,19.66 9.63,40.97 11.97,64.14 2.56,22.96 3.73,47.3 3.73,73.04zm195.5 146.81l0 -145.38c0,-45.43 -4.21,-88.05 -12.66,-128.32 -8.42,-40.27 -20.58,-77.25 -36.76,-111.19 -14.5,-29.73 -32.07,-56.89 -52.43,-81.71 -20.36,-24.6 -44.01,-45.65 -70.95,-62.97 -26.91,-18.27 -57.34,-32.32 -90.83,-42.14 -33.71,-9.84 -69.52,-14.75 -108.15,-14.75 -37.93,0 -73.07,4.68 -105.58,14.28 -32.32,9.59 -61.58,23.4 -87.79,41.19 -26.47,18.27 -49.9,40.28 -70.25,65.79 -20.36,25.77 -37.71,54.33 -51.73,85.7 -14.76,33.46 -25.77,69.75 -33.24,109.1 -7.72,39.32 -11.49,80.99 -11.49,125.02l0 145.38c0,40.97 3.52,80.07 10.07,117.3 6.55,36.98 16.4,71.17 29.03,102.77 14.28,34.42 31.85,65.09 52.94,92.26 21.05,27.13 44.7,50.31 71.39,69.52 26.91,18.49 56.89,32.55 89.66,42.61 33.02,10.07 68.83,15.2 107.71,15.2 36.75,0 70.92,-4.44 102.54,-13.59 31.82,-8.89 61.11,-21.31 87.54,-37.2 29.28,-18.27 55.28,-41.22 78.2,-68.6 22.96,-27.39 42.14,-57.59 57.59,-90.61 14.53,-33.02 25.77,-68.61 33.71,-107.23 7.73,-38.63 11.49,-79.59 11.49,-122.43z"/>
    <path class="fil0" d="M3068.68 439.66l0 146.81c0,24.57 -1.17,48.47 -3.74,71.17 -2.34,22.96 -6.33,44.01 -11.24,63.19 -6.33,24.6 -15,46.83 -25.77,66.26 -10.76,19.44 -23.87,35.37 -39.32,48.25 -12.41,10.51 -26.69,18.49 -42.61,24.09 -15.92,5.38 -33.72,8.2 -52.91,8.2 -19.91,0 -37.93,-3.04 -53.85,-8.9 -15.67,-6.08 -29.73,-14.5 -42.14,-25.51 -13.11,-12.19 -24.82,-28.34 -34.63,-48.22 -9.85,-19.91 -17.1,-41.91 -22.26,-66.26 -4.44,-19.19 -7.73,-40.05 -9.6,-62.53 -1.87,-22.22 -2.82,-45.65 -2.82,-69.75l0 -146.81c0,-25.74 1.17,-50.08 3.29,-73.51 1.87,-23.17 5.38,-44.7 9.81,-64.36 5.86,-25.77 14.28,-47.99 25.04,-67.22 10.79,-19.18 23.9,-35.33 39.35,-47.99 11.46,-8.64 24.35,-15.45 38.84,-19.88 14.28,-4.69 30.46,-7.03 48.25,-7.03 18.96,0 35.8,2.56 51.26,7.72 15.23,4.91 29.03,11.94 41.44,21.09 15.45,12.41 29.03,28.3 40.49,47.74 11.49,19.44 20.61,41.44 27.38,66.27 5.42,19.66 9.63,40.97 11.97,64.14 2.56,22.96 3.74,47.3 3.74,73.04zm195.5 146.81l0 -145.38c0,-45.43 -4.21,-88.05 -12.66,-128.32 -8.42,-40.27 -20.58,-77.25 -36.76,-111.19 -14.5,-29.73 -32.07,-56.89 -52.43,-81.71 -20.36,-24.6 -44,-45.65 -70.95,-62.97 -26.91,-18.27 -57.33,-32.32 -90.83,-42.14 -33.72,-9.84 -69.52,-14.75 -108.15,-14.75 -37.93,0 -73.07,4.68 -105.58,14.28 -32.33,9.59 -61.58,23.4 -87.79,41.19 -26.47,18.27 -49.9,40.28 -70.25,65.79 -20.36,25.77 -37.71,54.33 -51.73,85.7 -14.76,33.46 -25.77,69.75 -33.24,109.1 -7.72,39.32 -11.49,80.99 -11.49,125.02l0 145.38c0,40.97 3.52,80.07 10.07,117.3 6.56,36.98 16.4,71.17 29.04,102.77 14.27,34.42 31.85,65.09 52.93,92.26 21.05,27.13 44.71,50.31 71.39,69.52 26.91,18.49 56.89,32.55 89.66,42.61 33.02,10.07 68.83,15.2 107.7,15.2 36.76,0 70.92,-4.44 102.55,-13.59 31.82,-8.89 61.1,-21.31 87.54,-37.2 29.29,-18.27 55.28,-41.22 78.2,-68.6 22.95,-27.39 42.14,-57.59 57.59,-90.61 14.53,-33.02 25.77,-68.61 33.72,-107.23 7.72,-38.63 11.49,-79.59 11.49,-122.43z"/>
   </g>
   <path class="fil0" d="M1659.61 953.32l0 59.11 0 42.42 193.63 0 0 -42.42 30.11 0 372.25 0 0 42.42 193.63 0 0 -42.42 0 -59.11 0 -95.87 -67.91 0 0 -843.76 -493.07 0 -27.61 408.76c-0.7,23.43 -1.87,45.65 -3.04,66.74 -1.17,21.05 -2.59,40.72 -4.46,59.68 -3.52,38.88 -7.95,73.29 -12.89,103.5 -5.13,30.2 -11.24,56.42 -18.71,78.9 -10.54,33.72 -23.43,60.63 -39.1,80.29 -15.45,19.66 -33.72,34.89 -54.77,45.91l-37.01 0 -31.05 0 0 95.87zm529.73 -95.87l-216.08 0c10.98,-22.48 21.05,-47.78 30.2,-75.86 9.12,-28.11 17.06,-59.93 23.87,-95.77 3.73,-19.66 7.25,-40.49 10.29,-62.97 3.29,-22.48 6.11,-45.87 8.2,-70.7 1.87,-19.66 3.52,-40.27 4.91,-61.8 1.43,-21.31 2.59,-44.04 3.52,-67.91l16.4 -252.39 118.69 0 0 687.4z"/>
   <polygon class="fil0" points="1365.17,13.69 1081.88,651.67 1081.88,13.69 889.19,13.69 889.19,1012.43 1081.88,1012.43 1365.17,375.15 1365.17,1012.43 1558.8,1012.43 1558.8,13.69 "/>
   <path class="fil0" d="M729.76 13.69l-591.84 0 -3.99 522.77c-0.48,21.56 -0.95,41.69 -1.43,60.66 -0.44,18.97 -1.14,36.76 -2.09,53.13 -1.39,29.28 -3.52,54.8 -6.08,76.81 -2.82,22 -6.56,40.72 -11.02,56.16 -7.95,24.82 -19.18,43.34 -34.41,55.72 -14.97,12.19 -33.72,18.52 -56.19,18.52l-22.7 0 0 154.97 47.99 0c45.88,0 85.93,-8.42 120.12,-25.3 34.42,-17.07 62.97,-44.48 85.67,-82.41 11.02,-17.79 20.83,-38.15 29.25,-61.1 8.45,-22.7 15.7,-48.22 21.56,-76.08 3.74,-16.84 6.78,-34.63 9.6,-53.38 2.82,-18.96 5.16,-38.62 6.77,-59.71 1.43,-17.79 2.59,-36.75 3.52,-56.42 0.95,-19.66 1.64,-40.02 2.12,-61.58l3.26 -366.4 206.51 0 0 842.37 193.38 0 0 -998.74z"/>
  </g>
 </g>
</svg>
