<?xml version="1.0" encoding="UTF-8"?>
<!DOCTYPE svg PUBLIC "-//W3C//DTD SVG 1.1//EN" "http://www.w3.org/Graphics/SVG/1.1/DTD/svg11.dtd">
<!-- Creator: CorelDRAW -->
<svg xmlns="http://www.w3.org/2000/svg" xml:space="preserve" width="117.079mm" height="20.8535mm" version="1.1" style="shape-rendering:geometricPrecision; text-rendering:geometricPrecision; image-rendering:optimizeQuality; fill-rule:evenodd; clip-rule:evenodd"
viewBox="0 0 5794.63 1032.11"
 xmlns:xlink="http://www.w3.org/1999/xlink"
 xmlns:xodm="http://www.corel.com/coreldraw/odm/2003">
 <defs>
  <style type="text/css">
   <![CDATA[
    .fil0 {fill:white;fill-rule:nonzero}
   ]]>
  </style>
 </defs>
 <g id="Layer_x0020_1">
  <metadata id="CorelCorpID_0Corel-Layer"/>
  <g id="_2444461690384">
   <path class="fil0" d="M3989.52 483.78l0 1.18 0 1.18 0 1.18 0 1.18 0 27.04 0 1.11 0 1.15 0 1.11 0 1.11c-0.12,22.49 -1.27,44.3 -3.66,65.14 -2.29,22.46 -6.2,43.06 -11,61.83 -6.2,24.07 -14.68,45.82 -25.21,64.84 -10.53,19.02 -23.36,34.6 -38.48,47.21 -12.14,10.28 -26.11,18.09 -41.69,23.57 -9.08,3.07 -18.74,5.24 -28.93,6.57l0 -573.2c9.38,1.24 18.24,3.32 26.64,6.1 14.9,4.8 28.4,11.68 40.54,20.63 15.12,12.15 28.41,27.7 39.62,46.72 11.24,19.02 20.17,40.54 26.8,64.83 5.3,19.24 9.42,40.08 11.71,62.76 2.36,21.06 3.5,43.3 3.66,66.75zm-336.81 306.39c-14.5,-1.02 -27.82,-3.78 -39.93,-8.24 -15.33,-5.94 -29.09,-14.18 -41.23,-24.96 -12.82,-11.93 -24.29,-27.73 -33.89,-47.18 -9.63,-19.49 -16.73,-41.02 -21.78,-64.84 -4.34,-18.77 -7.56,-39.18 -9.38,-61.18 -1.7,-20.38 -2.63,-41.82 -2.76,-63.85l0 -1.08 0 -1.11 0 -1.08 0 -1.11 0 -27.04 0 -1.18 0 -1.18 0 -1.18 0 -1.18c0.12,-23.45 1.27,-45.78 3.22,-67.22 1.83,-22.68 5.27,-43.74 9.6,-62.98 5.73,-25.22 13.97,-46.96 24.5,-65.77 10.56,-18.77 23.39,-34.57 38.5,-46.96 11.22,-8.46 23.82,-15.12 38.01,-19.46 10.69,-3.5 22.43,-5.7 35.13,-6.5l0 575.27zm-339.23 -338.42l-1.02 0 0 34.11 0 2.01 0 2.01 0 25.65 0 1.89 0 1.86 0 32.96 0.96 0c1.46,26.89 4.46,52.91 8.89,78.07 6.41,36.18 16.05,69.63 28.4,100.55 13.97,33.67 31.17,63.69 51.79,90.27 20.6,26.55 43.74,49.22 69.85,68.02 26.33,18.09 55.66,31.84 87.73,41.7 28.65,8.74 59.48,13.66 92.62,14.68l0 45.07 187.84 0 0 -45.47c27.38,-1.48 53.22,-5.67 77.51,-12.7 31.13,-8.71 59.78,-20.85 85.65,-36.4 28.66,-17.88 54.09,-40.33 76.52,-67.13 22.46,-26.8 41.23,-56.35 56.34,-88.66 14.22,-32.31 25.22,-67.13 32.99,-104.92 5.33,-26.61 8.71,-54.36 10.25,-83.08l0.99 0 0 -32.77 0 -1.98 0 -1.95 0 -25.65 0 -2.07 0 -2.07 0 -33.98 -1.05 0c-1.7,-30.39 -5.45,-59.48 -11.34,-87.42 -8.24,-39.4 -20.13,-75.58 -35.96,-108.79 -14.19,-29.09 -31.38,-55.66 -51.3,-79.95 -19.92,-24.07 -43.05,-44.67 -69.42,-61.61 -26.33,-17.88 -56.1,-31.63 -88.87,-41.23 -26.05,-7.59 -53.37,-12.18 -82.31,-13.78l0 -45.57 -187.84 0 0 45.07c-32.53,0.9 -62.89,5.45 -91.23,13.81 -31.63,9.39 -60.25,22.89 -85.9,40.3 -25.9,17.87 -48.82,39.4 -68.74,64.37 -19.92,25.21 -36.89,53.16 -50.62,83.85 -14.43,32.74 -25.21,68.25 -32.52,106.75 -5.3,26.95 -8.65,54.99 -10.23,84.2z"/>
   <polygon class="fil0" points="5794.63,990.6 5794.63,13.4 5608.18,13.4 5608.18,414.02 5331.68,414.02 5331.68,13.4 5144.3,13.4 5144.3,990.6 5331.68,990.6 5331.68,567.05 5608.18,567.05 5608.18,990.6 "/>
   <g>
    <path class="fil0" d="M4824.5 430.17l0 143.64c0,24.04 -1.14,47.43 -3.65,69.64 -2.29,22.46 -6.2,43.06 -11,61.83 -6.2,24.07 -14.68,45.82 -25.22,64.83 -10.53,19.02 -23.36,34.61 -38.47,47.21 -12.15,10.28 -26.12,18.09 -41.7,23.57 -15.58,5.27 -32.99,8.02 -51.76,8.02 -19.49,0 -37.11,-2.97 -52.69,-8.71 -15.34,-5.95 -29.09,-14.18 -41.23,-24.96 -12.82,-11.93 -24.29,-27.73 -33.89,-47.18 -9.64,-19.48 -16.73,-41.01 -21.78,-64.83 -4.34,-18.77 -7.56,-39.19 -9.38,-61.18 -1.83,-21.74 -2.76,-44.67 -2.76,-68.24l0 -143.64c0,-25.18 1.15,-49 3.22,-71.93 1.83,-22.67 5.27,-43.74 9.61,-62.98 5.73,-25.22 13.97,-46.96 24.5,-65.77 10.57,-18.77 23.39,-34.57 38.51,-46.96 11.22,-8.46 23.82,-15.12 38.01,-19.45 13.97,-4.59 29.8,-6.88 47.21,-6.88 18.55,0 35.04,2.51 50.15,7.56 14.9,4.8 28.4,11.68 40.55,20.63 15.12,12.14 28.4,27.69 39.62,46.71 11.24,19.02 20.16,40.55 26.8,64.84 5.3,19.23 9.42,40.08 11.71,62.76 2.51,22.46 3.65,46.28 3.65,71.46zm191.28 143.64l0 -142.24c0,-44.45 -4.12,-86.15 -12.39,-125.55 -8.24,-39.4 -20.13,-75.59 -35.97,-108.79 -14.18,-29.09 -31.38,-55.66 -51.29,-79.95 -19.92,-24.07 -43.06,-44.67 -69.42,-61.61 -26.33,-17.87 -56.1,-31.63 -88.87,-41.23 -32.99,-9.63 -68.02,-14.43 -105.82,-14.43 -37.11,0 -71.49,4.58 -103.31,13.97 -31.63,9.38 -60.25,22.89 -85.9,40.3 -25.89,17.88 -48.82,39.41 -68.74,64.37 -19.92,25.22 -36.89,53.16 -50.62,83.86 -14.44,32.74 -25.22,68.24 -32.53,106.75 -7.56,38.47 -11.24,79.24 -11.24,122.33l0 142.24c0,40.08 3.44,78.34 9.85,114.77 6.41,36.18 16.05,69.64 28.4,100.55 13.97,33.68 31.16,63.69 51.79,90.27 20.6,26.54 43.74,49.22 69.85,68.02 26.33,18.09 55.66,31.84 87.73,41.69 32.31,9.85 67.35,14.87 105.39,14.87 35.96,0 69.39,-4.34 100.33,-13.29 31.13,-8.7 59.79,-20.85 85.65,-36.4 28.65,-17.87 54.09,-40.33 76.51,-67.12 22.46,-26.8 41.23,-56.35 56.35,-88.66 14.22,-32.31 25.22,-67.13 32.99,-104.92 7.56,-37.79 11.24,-77.88 11.24,-119.79z"/>
    <path class="fil0" d="M3002.5 430.17l0 143.64c0,24.04 -1.15,47.43 -3.66,69.64 -2.29,22.46 -6.19,43.06 -11,61.83 -6.19,24.07 -14.68,45.82 -25.21,64.83 -10.53,19.02 -23.36,34.61 -38.48,47.21 -12.14,10.28 -26.11,18.09 -41.69,23.57 -15.58,5.27 -32.99,8.02 -51.76,8.02 -19.48,0 -37.11,-2.97 -52.69,-8.71 -15.33,-5.95 -29.09,-14.18 -41.23,-24.96 -12.82,-11.93 -24.29,-27.73 -33.89,-47.18 -9.64,-19.48 -16.73,-41.01 -21.78,-64.83 -4.34,-18.77 -7.56,-39.19 -9.39,-61.18 -1.83,-21.74 -2.76,-44.67 -2.76,-68.24l0 -143.64c0,-25.18 1.15,-49 3.22,-71.93 1.83,-22.67 5.27,-43.74 9.6,-62.98 5.73,-25.22 13.97,-46.96 24.5,-65.77 10.56,-18.77 23.39,-34.57 38.51,-46.96 11.21,-8.46 23.82,-15.12 38.01,-19.45 13.97,-4.59 29.8,-6.88 47.21,-6.88 18.55,0 35.03,2.51 50.15,7.56 14.9,4.8 28.4,11.68 40.55,20.63 15.12,12.14 28.4,27.69 39.62,46.71 11.24,19.02 20.16,40.55 26.79,64.84 5.3,19.23 9.42,40.08 11.71,62.76 2.51,22.46 3.66,46.28 3.66,71.46zm191.28 143.64l0 -142.24c0,-44.45 -4.12,-86.15 -12.39,-125.55 -8.24,-39.4 -20.14,-75.59 -35.97,-108.79 -14.18,-29.09 -31.38,-55.66 -51.3,-79.95 -19.92,-24.07 -43.05,-44.67 -69.42,-61.61 -26.33,-17.87 -56.1,-31.63 -88.87,-41.23 -32.99,-9.63 -68.02,-14.43 -105.82,-14.43 -37.11,0 -71.5,4.58 -103.31,13.97 -31.63,9.38 -60.25,22.89 -85.9,40.3 -25.9,17.88 -48.82,39.41 -68.74,64.37 -19.92,25.22 -36.9,53.16 -50.62,83.86 -14.44,32.74 -25.22,68.24 -32.53,106.75 -7.56,38.47 -11.24,79.24 -11.24,122.33l0 142.24c0,40.08 3.44,78.34 9.85,114.77 6.41,36.18 16.05,69.64 28.41,100.55 13.97,33.68 31.16,63.69 51.79,90.27 20.6,26.54 43.74,49.22 69.85,68.02 26.33,18.09 55.66,31.84 87.73,41.69 32.31,9.85 67.35,14.87 105.38,14.87 35.97,0 69.39,-4.34 100.34,-13.29 31.13,-8.7 59.78,-20.85 85.65,-36.4 28.66,-17.87 54.09,-40.33 76.52,-67.12 22.46,-26.8 41.23,-56.35 56.34,-88.66 14.22,-32.31 25.22,-67.13 32.99,-104.92 7.56,-37.79 11.24,-77.88 11.24,-119.79z"/>
   </g>
   <path class="fil0" d="M1623.81 932.76l0 57.83 0 41.51 189.45 0 0 -41.51 29.46 0 364.23 0 0 41.51 189.45 0 0 -41.51 0 -57.83 0 -93.8 -66.44 0 0 -825.57 -482.43 0 -27.01 399.94c-0.68,22.92 -1.83,44.67 -2.97,65.3 -1.14,20.6 -2.54,39.84 -4.37,58.39 -3.44,38.04 -7.78,71.71 -12.61,101.26 -5.02,29.55 -11,55.2 -18.31,77.19 -10.31,32.99 -22.92,59.32 -38.25,78.56 -15.12,19.23 -32.99,34.14 -53.59,44.92l-36.21 0 -30.38 0 0 93.8zm518.3 -93.8l-211.42 0c10.74,-21.99 20.6,-46.75 29.55,-74.22 8.92,-27.51 16.69,-58.64 23.36,-93.71 3.65,-19.24 7.09,-39.62 10.07,-61.61 3.22,-21.99 5.98,-44.89 8.02,-69.17 1.83,-19.24 3.44,-39.4 4.8,-60.47 1.4,-20.85 2.54,-43.09 3.44,-66.44l16.05 -246.95 116.13 0 0 672.57z"/>
   <polygon class="fil0" points="1335.72,13.4 1058.55,637.61 1058.55,13.4 870.02,13.4 870.02,990.6 1058.55,990.6 1335.72,367.06 1335.72,990.6 1525.18,990.6 1525.18,13.4 "/>
   <path class="fil0" d="M714.02 13.4l-579.08 0 -3.91 511.49c-0.47,21.09 -0.93,40.79 -1.4,59.35 -0.43,18.56 -1.11,35.97 -2.04,51.98 -1.36,28.65 -3.44,53.62 -5.94,75.15 -2.76,21.53 -6.41,39.84 -10.78,54.95 -7.78,24.29 -18.77,42.41 -33.67,54.52 -14.65,11.93 -32.99,18.12 -54.98,18.12l-22.21 0 0 151.63 46.96 0c44.89,0 84.07,-8.24 117.53,-24.75 33.68,-16.7 61.61,-43.52 83.83,-80.63 10.78,-17.41 20.38,-37.33 28.62,-59.78 8.27,-22.21 15.36,-47.18 21.09,-74.44 3.66,-16.48 6.63,-33.89 9.39,-52.23 2.76,-18.55 5.05,-37.79 6.63,-58.42 1.4,-17.41 2.54,-35.96 3.44,-55.2 0.93,-19.24 1.61,-39.15 2.07,-60.25l3.19 -358.5 202.06 0 0 824.21 189.21 0 0 -977.2z"/>
  </g>
 </g>
</svg>
